<mxfile host="www.draw.io" modified="2020-02-20T01:24:29.152Z" agent="Mozilla/5.0 (X11; Linux x86_64) AppleWebKit/537.36 (KHTML, like Gecko) Chrome/80.0.3987.116 Safari/537.36" etag="QNWIJ5-8pkIyZbb6Hgku" version="12.7.2" type="github">
  <diagram id="PK4ZrDCK0nvbMfZUI2dg" name="Page-1">
    <mxGraphModel dx="723" dy="378" grid="1" gridSize="10" guides="1" tooltips="1" connect="1" arrows="1" fold="1" page="1" pageScale="1" pageWidth="850" pageHeight="1100" math="0" shadow="0">
      <root>
        <mxCell id="0" />
        <mxCell id="1" parent="0" />
        <mxCell id="bxJ9wrxv5kn9V14nfCGP-1" value="Student" style="rounded=0;whiteSpace=wrap;html=1;" parent="1" vertex="1">
          <mxGeometry x="270" y="190" width="120" height="60" as="geometry" />
        </mxCell>
        <mxCell id="bxJ9wrxv5kn9V14nfCGP-3" value="Address" style="ellipse;shape=doubleEllipse;margin=3;whiteSpace=wrap;html=1;align=center;strokeColor=#000000;" parent="1" vertex="1">
          <mxGeometry x="270" y="120" width="100" height="40" as="geometry" />
        </mxCell>
        <mxCell id="bxJ9wrxv5kn9V14nfCGP-7" value="" style="endArrow=none;html=1;rounded=0;" parent="1" edge="1">
          <mxGeometry relative="1" as="geometry">
            <mxPoint x="320" y="160" as="sourcePoint" />
            <mxPoint x="320" y="190" as="targetPoint" />
          </mxGeometry>
        </mxCell>
        <mxCell id="bxJ9wrxv5kn9V14nfCGP-8" value="Advise" style="shape=rhombus;perimeter=rhombusPerimeter;whiteSpace=wrap;html=1;align=center;strokeColor=#000000;" parent="1" vertex="1">
          <mxGeometry x="430" y="190" width="120" height="60" as="geometry" />
        </mxCell>
        <mxCell id="bxJ9wrxv5kn9V14nfCGP-9" value="Instructor" style="whiteSpace=wrap;html=1;align=center;strokeColor=#000000;" parent="1" vertex="1">
          <mxGeometry x="570" y="200" width="100" height="40" as="geometry" />
        </mxCell>
        <mxCell id="bxJ9wrxv5kn9V14nfCGP-10" value="" style="shape=link;html=1;rounded=0;" parent="1" edge="1">
          <mxGeometry relative="1" as="geometry">
            <mxPoint x="390" y="219.5" as="sourcePoint" />
            <mxPoint x="430" y="219.5" as="targetPoint" />
          </mxGeometry>
        </mxCell>
        <mxCell id="bxJ9wrxv5kn9V14nfCGP-11" value="N" style="resizable=0;html=1;align=right;verticalAlign=bottom;" parent="bxJ9wrxv5kn9V14nfCGP-10" connectable="0" vertex="1">
          <mxGeometry x="1" relative="1" as="geometry" />
        </mxCell>
        <mxCell id="bxJ9wrxv5kn9V14nfCGP-13" value="" style="shape=link;html=1;rounded=0;" parent="1" edge="1">
          <mxGeometry relative="1" as="geometry">
            <mxPoint x="620" y="130.42000000000002" as="sourcePoint" />
            <mxPoint x="640" y="130" as="targetPoint" />
          </mxGeometry>
        </mxCell>
        <mxCell id="bxJ9wrxv5kn9V14nfCGP-14" value="1" style="resizable=0;html=1;align=right;verticalAlign=bottom;" parent="bxJ9wrxv5kn9V14nfCGP-13" connectable="0" vertex="1">
          <mxGeometry x="1" relative="1" as="geometry" />
        </mxCell>
        <mxCell id="bxJ9wrxv5kn9V14nfCGP-15" value="Enroll" style="shape=rhombus;perimeter=rhombusPerimeter;whiteSpace=wrap;html=1;align=center;strokeColor=#000000;" parent="1" vertex="1">
          <mxGeometry x="270" y="270" width="120" height="60" as="geometry" />
        </mxCell>
        <mxCell id="bxJ9wrxv5kn9V14nfCGP-16" value="Course" style="whiteSpace=wrap;html=1;align=center;strokeColor=#000000;" parent="1" vertex="1">
          <mxGeometry x="270" y="350" width="100" height="40" as="geometry" />
        </mxCell>
        <mxCell id="bxJ9wrxv5kn9V14nfCGP-17" value="Belong" style="shape=rhombus;perimeter=rhombusPerimeter;whiteSpace=wrap;html=1;align=center;strokeColor=#000000;" parent="1" vertex="1">
          <mxGeometry x="410" y="340" width="120" height="60" as="geometry" />
        </mxCell>
        <mxCell id="bxJ9wrxv5kn9V14nfCGP-18" value="Faculty" style="whiteSpace=wrap;html=1;align=center;strokeColor=#000000;" parent="1" vertex="1">
          <mxGeometry x="560" y="350" width="100" height="40" as="geometry" />
        </mxCell>
        <mxCell id="bxJ9wrxv5kn9V14nfCGP-19" value="In" style="shape=rhombus;perimeter=rhombusPerimeter;whiteSpace=wrap;html=1;align=center;strokeColor=#000000;" parent="1" vertex="1">
          <mxGeometry x="690" y="270" width="120" height="60" as="geometry" />
        </mxCell>
        <mxCell id="bxJ9wrxv5kn9V14nfCGP-20" value="Teach" style="shape=rhombus;perimeter=rhombusPerimeter;whiteSpace=wrap;html=1;align=center;strokeColor=#000000;" parent="1" vertex="1">
          <mxGeometry x="110" y="50" width="120" height="60" as="geometry" />
        </mxCell>
        <mxCell id="bxJ9wrxv5kn9V14nfCGP-21" value="" style="shape=link;html=1;rounded=0;width=-5;" parent="1" edge="1">
          <mxGeometry relative="1" as="geometry">
            <mxPoint x="329.58000000000004" y="250" as="sourcePoint" />
            <mxPoint x="330" y="270" as="targetPoint" />
          </mxGeometry>
        </mxCell>
        <mxCell id="bxJ9wrxv5kn9V14nfCGP-22" value="M" style="resizable=0;html=1;align=right;verticalAlign=bottom;" parent="bxJ9wrxv5kn9V14nfCGP-21" connectable="0" vertex="1">
          <mxGeometry x="1" relative="1" as="geometry" />
        </mxCell>
        <mxCell id="bxJ9wrxv5kn9V14nfCGP-23" value="" style="shape=link;html=1;rounded=0;" parent="1" edge="1">
          <mxGeometry relative="1" as="geometry">
            <mxPoint x="430" y="320" as="sourcePoint" />
            <mxPoint x="430" y="340" as="targetPoint" />
          </mxGeometry>
        </mxCell>
        <mxCell id="bxJ9wrxv5kn9V14nfCGP-24" value="N" style="resizable=0;html=1;align=right;verticalAlign=bottom;" parent="bxJ9wrxv5kn9V14nfCGP-23" connectable="0" vertex="1">
          <mxGeometry x="1" relative="1" as="geometry" />
        </mxCell>
        <mxCell id="HPSszsWRwPZeKzIDppFs-2" value="" style="endArrow=none;html=1;rounded=0;" edge="1" parent="1">
          <mxGeometry relative="1" as="geometry">
            <mxPoint x="550" y="220" as="sourcePoint" />
            <mxPoint x="570" y="219.5" as="targetPoint" />
          </mxGeometry>
        </mxCell>
        <mxCell id="HPSszsWRwPZeKzIDppFs-3" value="1" style="resizable=0;html=1;align=right;verticalAlign=bottom;" connectable="0" vertex="1" parent="HPSszsWRwPZeKzIDppFs-2">
          <mxGeometry x="1" relative="1" as="geometry" />
        </mxCell>
      </root>
    </mxGraphModel>
  </diagram>
</mxfile>
